<svg width="460" height="215" viewBox="0 0 460 215" fill="none" xmlns="http://www.w3.org/2000/svg">
<rect width="460" height="215" fill="#3F4683"/>
<path d="M169.688 106.96C169.688 104.229 170.157 101.52 171.096 98.832C172.077 96.144 173.485 93.712 175.32 91.536C177.155 89.3173 179.416 87.568 182.104 86.288C184.792 84.9653 187.843 84.304 191.256 84.304C195.267 84.304 198.723 85.2427 201.624 87.12C204.525 88.9547 206.659 91.3227 208.024 94.224L204.504 96.4C203.523 94.3947 202.285 92.816 200.792 91.664C199.299 90.4693 197.699 89.616 195.992 89.104C194.328 88.592 192.664 88.336 191 88.336C188.269 88.336 185.859 88.8907 183.768 90C181.677 91.0667 179.907 92.5173 178.456 94.352C177.048 96.1867 175.981 98.2133 175.256 100.432C174.531 102.651 174.168 104.912 174.168 107.216C174.168 109.733 174.595 112.144 175.448 114.448C176.301 116.709 177.496 118.736 179.032 120.528C180.568 122.32 182.36 123.749 184.408 124.816C186.499 125.84 188.76 126.352 191.192 126.352C192.899 126.352 194.648 126.053 196.44 125.456C198.232 124.859 199.896 123.941 201.432 122.704C202.968 121.467 204.227 119.867 205.208 117.904L208.92 119.824C207.939 122.085 206.467 124.005 204.504 125.584C202.584 127.163 200.408 128.357 197.976 129.168C195.587 129.979 193.24 130.384 190.936 130.384C187.821 130.384 184.963 129.723 182.36 128.4C179.757 127.035 177.496 125.243 175.576 123.024C173.699 120.763 172.248 118.245 171.224 115.472C170.2 112.656 169.688 109.819 169.688 106.96ZM243.131 93.072C241.851 91.664 240.144 90.512 238.011 89.616C235.878 88.6773 233.446 88.208 230.715 88.208C226.704 88.208 223.782 88.976 221.947 90.512C220.112 92.0053 219.195 94.0533 219.195 96.656C219.195 98.448 219.643 99.856 220.539 100.88C221.435 101.904 222.8 102.757 224.635 103.44C226.512 104.08 228.902 104.72 231.803 105.36C235.046 106.043 237.84 106.853 240.187 107.792C242.534 108.731 244.347 110.011 245.627 111.632C246.907 113.211 247.547 115.365 247.547 118.096C247.547 120.869 246.843 123.173 245.435 125.008C244.027 126.843 242.086 128.208 239.611 129.104C237.136 129.957 234.32 130.384 231.163 130.384C224.08 130.384 218 128.187 212.923 123.792L215.163 120.144C216.784 121.851 219.003 123.323 221.819 124.56C224.678 125.797 227.835 126.416 231.291 126.416C234.875 126.416 237.691 125.755 239.739 124.432C241.787 123.109 242.811 121.147 242.811 118.544C242.811 116.667 242.299 115.173 241.275 114.064C240.251 112.912 238.715 111.973 236.667 111.248C234.619 110.523 232.102 109.819 229.115 109.136C225.958 108.411 223.291 107.6 221.115 106.704C218.982 105.808 217.36 104.635 216.251 103.184C215.142 101.733 214.587 99.7707 214.587 97.296C214.587 94.48 215.27 92.112 216.635 90.192C218.043 88.2293 219.963 86.7573 222.395 85.776C224.827 84.752 227.622 84.24 230.779 84.24C233.766 84.24 236.454 84.7093 238.843 85.648C241.232 86.544 243.387 87.824 245.307 89.488L243.131 93.072ZM282.006 93.072C280.726 91.664 279.019 90.512 276.886 89.616C274.753 88.6773 272.321 88.208 269.59 88.208C265.579 88.208 262.657 88.976 260.822 90.512C258.987 92.0053 258.07 94.0533 258.07 96.656C258.07 98.448 258.518 99.856 259.414 100.88C260.31 101.904 261.675 102.757 263.51 103.44C265.387 104.08 267.777 104.72 270.678 105.36C273.921 106.043 276.715 106.853 279.062 107.792C281.409 108.731 283.222 110.011 284.502 111.632C285.782 113.211 286.422 115.365 286.422 118.096C286.422 120.869 285.718 123.173 284.31 125.008C282.902 126.843 280.961 128.208 278.486 129.104C276.011 129.957 273.195 130.384 270.038 130.384C262.955 130.384 256.875 128.187 251.798 123.792L254.038 120.144C255.659 121.851 257.878 123.323 260.694 124.56C263.553 125.797 266.71 126.416 270.166 126.416C273.75 126.416 276.566 125.755 278.614 124.432C280.662 123.109 281.686 121.147 281.686 118.544C281.686 116.667 281.174 115.173 280.15 114.064C279.126 112.912 277.59 111.973 275.542 111.248C273.494 110.523 270.977 109.819 267.99 109.136C264.833 108.411 262.166 107.6 259.99 106.704C257.857 105.808 256.235 104.635 255.126 103.184C254.017 101.733 253.462 99.7707 253.462 97.296C253.462 94.48 254.145 92.112 255.51 90.192C256.918 88.2293 258.838 86.7573 261.27 85.776C263.702 84.752 266.497 84.24 269.654 84.24C272.641 84.24 275.329 84.7093 277.718 85.648C280.107 86.544 282.262 87.824 284.182 89.488L282.006 93.072Z" fill="white"/>
</svg>
