<svg width="460" height="215" viewBox="0 0 460 215" fill="none" xmlns="http://www.w3.org/2000/svg">
<g id="Group 8">
<g id="Group 4">
<rect id="Rectangle 3" width="460" height="215" fill="#5A88A2"/>
</g>
<path id="PHP" d="M172.696 130V84.56H191.512C193.475 84.56 195.267 84.9653 196.888 85.776C198.552 86.5867 199.981 87.696 201.176 89.104C202.413 90.4693 203.352 92.0053 203.992 93.712C204.675 95.376 205.016 97.0827 205.016 98.832C205.016 101.307 204.461 103.653 203.352 105.872C202.243 108.048 200.707 109.819 198.744 111.184C196.781 112.549 194.499 113.232 191.896 113.232H177.176V130H172.696ZM177.176 109.264H191.704C193.496 109.264 195.053 108.773 196.376 107.792C197.699 106.811 198.723 105.531 199.448 103.952C200.173 102.373 200.536 100.667 200.536 98.832C200.536 96.9547 200.109 95.248 199.256 93.712C198.403 92.1333 197.272 90.8747 195.864 89.936C194.499 88.9973 192.984 88.528 191.32 88.528H177.176V109.264ZM248.349 84.56V130H243.933V108.752H216.989V130H212.509V84.56H216.989V104.784H243.933V84.56H248.349ZM259.759 130V84.56H278.575C280.537 84.56 282.329 84.9653 283.951 85.776C285.615 86.5867 287.044 87.696 288.239 89.104C289.476 90.4693 290.415 92.0053 291.055 93.712C291.737 95.376 292.079 97.0827 292.079 98.832C292.079 101.307 291.524 103.653 290.415 105.872C289.305 108.048 287.769 109.819 285.807 111.184C283.844 112.549 281.561 113.232 278.959 113.232H264.239V130H259.759ZM264.239 109.264H278.767C280.559 109.264 282.116 108.773 283.439 107.792C284.761 106.811 285.785 105.531 286.511 103.952C287.236 102.373 287.599 100.667 287.599 98.832C287.599 96.9547 287.172 95.248 286.319 93.712C285.465 92.1333 284.335 90.8747 282.927 89.936C281.561 88.9973 280.047 88.528 278.383 88.528H264.239V109.264Z" fill="white"/>
</g>
</svg>
